<svg version="1.1" id="svg3643" xmlns="http://www.w3.org/2000/svg" x="0" y="0" viewBox="0 0 1328.1 1500" style="enable-background:new 0 0 1328.1 1500" xml:space="preserve"><style>.st0{fill:#fff}</style><g id="layer1" transform="translate(-300.114 -460.22)"><g id="g3342" transform="matrix(.60399 0 0 .60399 221.532 185.086)"><path id="path3005-4-9-8-2-1-3-1-2-8-1-0-7-1-6-6-6" d="M1206.9 455.5c-178.2 1.5-346.7 76-505.5 151.5-174 89-366.3 149.4-563.4 145-6.8 117.8-9.8 235.9-6.7 353.9 9.4 399.3 87.8 808.9 305.2 1149.2 188.3 301 479 524.1 792.3 683.5.3.1.8.4.8.4s.5-.2.8-.4c313.4-159.4 604-382.5 792.3-683.5 217.3-340.3 295.7-749.9 305.2-1149.2 3-118 .1-236.1-6.7-353.9-197.1 4.3-389.4-56-563.4-145-158.8-75.5-327.2-150-505.5-151.5-5.7 0-11.6.1-17.3.2-1.8 0-3.5.1-5.3.2-1.8 0-3.5-.1-5.3-.2-5.9-.1-11.7-.2-17.5-.2z"/><path id="path3054-5" class="st0" d="M1229.6 565.5c-5.1 0-10.2 0-15.3.2-229 4-427.9 132.9-635 214.7-107.6 41.9-220.8 68.8-335.9 78.3-17.9 426.4 30.2 868.6 233.3 1249.7 168.9 307.1 443.3 544.9 752.5 705.2.2.1.5.2.5.2s.3-.1.5-.2c309.2-160.3 583.6-398 752.5-705.2 203.1-381.1 251.2-823.3 233.3-1249.7-115.2-9.4-228.4-36.4-335.9-78.3-207.1-81.7-406-210.7-635-214.7-5.3-.2-10.4-.2-15.5-.2z"/><path id="path3080-6" d="M1229.6 705.6c-4.4 0-8.8 0-13.3.2-230.9 10.6-425.2 152.1-638.4 224.4-64.7 21.4-130.4 39.6-197.5 51.3-5.1 381.1 52.8 775 247.7 1107.5 144.1 239.7 359.1 427.9 601.4 565.5.1 0 .2.1.2.1s.1-.1.2-.1c242.3-137.5 457.3-325.8 601.4-565.5 194.9-332.5 252.8-726.4 247.7-1107.5-67.1-11.6-132.8-29.9-197.5-51.3-213.3-72.3-407.5-213.8-638.4-224.4-4.7-.2-9.1-.2-13.5-.2z"/><g id="layer1-1" transform="translate(-673.786 443.45)"><path id="path3029" class="st0" d="m1903.4 461.7-148.1 457.5h-482l390.2 282.8-149.3 458.8 389.2-284.1 389.2 284.1-149.4-458.8 390.2-282.8h-482l-148-457.5z"/></g></g></g></svg>