<svg version="1.1" id="Camada_1" xmlns="http://www.w3.org/2000/svg" x="0" y="0" viewBox="0 0 1500 1500" style="enable-background:new 0 0 1500 1500" xml:space="preserve"><style>.st1{fill-rule:evenodd;clip-rule:evenodd;fill:#006437}</style><path d="M750 0c414.2 0 750 335.8 750 750s-335.8 750-750 750S0 1164.2 0 750 335.8 0 750 0" style="fill-rule:evenodd;clip-rule:evenodd;fill:#fff"/><path class="st1" d="M750 40.1c392.1 0 709.9 317.8 709.9 709.9 0 392.1-317.8 709.9-709.9 709.9-392.1 0-709.9-317.8-709.9-709.9C40.1 358 357.9 40.1 750 40.1m0-18.7c402.4 0 728.6 326.2 728.6 728.6 0 402.4-326.2 728.7-728.6 728.7-402.4 0-728.6-326.2-728.6-728.7C21.4 347.6 347.6 21.4 750 21.4"/><path class="st1" d="m1107.5 234.1 8.4 19.6-14.4 15.7 21.1-2L1133 286l4.6-20.8 20.8-4.2-18.3-10.8 2.5-21.2-15.9 14.1-19.2-9zm62 69.4 5.8 25.6-20.9 15.7 26 2.3 8.4 24.9 10.3-24.2 26.1-.3-19.7-17.3 7.7-25.1-22.4 13.5-21.3-15.1zm53 89 .4 33.9-30.7 14.1 32.1 10.1 3.8 33.7 19.5-27.6 33 6.8-20.1-27.2 16.6-29.5-31.9 10.8-22.7-25.1zm38 113.8-10.2 42.1-42.4 7.6 36.6 22.8-5.9 42.9 32.9-27.9 38.7 18.9-16.3-40.1 29.9-31.2-42.9 3.2-20.4-38.3zm-1021.1 0 10.3 42.1 42.4 7.6-36.6 22.8 5.9 42.9-32.9-27.9-38.7 18.9 16.3-40.1-29.9-31.2 42.9 3.2 20.3-38.3zm38-113.8-.4 33.9 30.7 14.1-32.1 10.1-3.8 33.7-19.5-27.6-33 6.8 20.1-27.2-16.6-29.5 31.9 10.8 22.7-25.1zm53-89-5.8 25.6 20.9 15.7-26 2.3-8.4 24.9-10.3-24.2-26.1-.3 19.7-17.3-7.7-25.1 22.4 13.5 21.3-15.1zm62-69.4-8.4 19.6 14.4 15.7-21.1-2-10.4 18.6-4.6-20.8-20.8-4.2 18.3-10.8-2.5-21.2 15.9 14.1 19.2-9zm799.9 481c5.6-12.1 10.6-24.8 15.4-37.9-13.2-2.3-23.8-4.2-34-6-24.8-4-41.2 4.2-49.3 15.1-8.1 10.9-13.1 21.2-19 36.1-5.9 14.9-5.5 42.1 36.4 60.8 36.5 16.9 63.9 33.7 121.8-15.8 34-27.3 46.9-18.1 59.3-15.5 17.8 6 19.6 13.2 16.2 31.8-4.7 23.1-30.7 10.8-43.2 5.9-4.8 18.3-9.8 32.4-17.9 52.2 7.6 3.2 17 7.5 25.5 11.1 38.6 15.5 82.2 7.1 92.3-39.7 6.1-31.4 4.2-46.7 4.2-52.1-.6-29.1-21.9-54.9-58.9-61.5-36.1-7.2-60.2-9.2-110.6 28.7-25.9 19.2-30.2 26.4-53.7 17.1-12.5-4.7-24.5-9-17.5-23.6 5.3-11.3 10.9-13.2 33-6.7m-71.5 141.5 113.4 46.5c-8.8 17.6-13.1 26.6-25.3 44.8l-88.1-91.3zM1060 784c-9.6 10.1-19.5 20.6-30.9 30.5l246.3 309.1c14.8-20.2 29.9-44.5 42.6-67.1l-67.4-67.2c14.5-23.5 20.8-37 32.6-64.5l76.6 33.4c8.6-22.2 15.3-42.6 19.9-64L1060 784zm-24.3 255.9c27.1-17.6 43.5-31.4 10.1-70.6l-37.3-47c-22.8-31.1-36-14.3-53.1-6.4l80.3 124zm57.2 256.9L896.2 894.6c25.3-9.3 46.6-19.8 68-32.5 27.1-17.4 49.7.3 72.4 21.2l57.5 53.5c54.5 50.7 44.6 88.5 32.5 100.7l143 93.9c-15.5 21.4-30.7 40.2-48 58L1082 1076.7l-16.3 11 104.2 152.3c-22.5 19.9-51.1 40.7-77 56.8M844.3 910.3c14.3-3.4 23.7-5.9 37.2-10.4l183.7 413.6c-24.9 13.6-55.4 28.7-86.2 40.2L844.3 910.3zm-13.9 2.9c-28.8 5.1-45.3 7.2-82.9 7.5l-9.7 474.1c73.9 2 149.1-10.1 212.8-31.3l-21.2-80.1c-34.1 10.9-67.4 19.1-100.5 22L810 1143.5c34.3-3.7 53-7.8 77.4-15.8l-16.3-60.3c-22.8 6.6-44.6 10.1-68.5 12.8l-13.2-114.4c17.9-.5 36.6-3.6 53-7.8l-12-44.8zm-446.6 366.6 211.6-389c12.4 5.1 26.6 9.7 39.1 13.4l-23.2 200.4c6.3-14.5 78.6-187.7 78.6-188.4 11 1.8 32 3.7 41.2 4.1l-28.4 472.9c-24.2-.7-61.6-6.3-88-12.5L655 1142l-101.6 163-2.6-198.2c-8.4 25.1-92.4 217.3-92.4 218-29.9-15.4-54.5-30.8-74.6-45M249 1154l273.2-301.5c-1-.3 24.7 15.6 37.1 21.9l-211 279.8c22.1 21.9 30.4 28.8 57.3 49l-38.2 65c-40.1-28.9-92.8-80.2-118.4-114.2m144.9-291.9-122 50.9c9.2 18 18 32 30.2 48.2l91.8-99.1zm53.2-72.4c9.9 10.3 22.1 21.9 34.2 32.1l-240.9 321.4c-15.4-20.1-31.3-43.9-44.4-66l67.5-72.8c-14.9-22.4-28-41.5-40.2-70l-78.1 34.4c-8.7-22.7-16-47.8-19.6-65.2l321.5-113.9zm-109.4-78.6-86.6 23.5c1 7.6 2.4 13.3 4.7 20.9 6.3 20.7 16 20.4 40.3 11.5l31.7-11.8c12.7-5.7 25.3-11.4 18.7-25.8-4.4-7.9-8.8-18.7-8.8-18.3m27.3-48.5c5.5 14.4 21.8 45.7 28.5 56.1 16.4 25.2 5.6 53.9-25.1 69.6l-62.8 32c-30 14.9-86.8 8.3-97.5-31.9-4.8-13.7-7-24.6-10.3-39.3l-89.8 25c-2.1-32.5-2.4-38.2-.5-65.9L365 662.6zm385-537.9c208.3 0 377.2 168.9 377.2 377.2C1127.2 710.2 958.3 879 750 879c-208.3 0-377.2-168.8-377.2-377.1S541.7 124.7 750 124.7m0-64.2c380.8 0 689.5 308.7 689.5 689.5s-308.7 689.5-689.5 689.5S60.5 1130.8 60.5 750 369.2 60.5 750 60.5"/><path class="st1" d="M1029.2 301.7c-163.6-38.4-263.5-127-279.1-142.7-15.3 15.6-118.4 105.5-278.7 142.7C468.2 652 727.2 832 750 847.4c22.8-15.2 281.5-188.9 279.2-545.7M754.1 153.2c89.6 80.4 191.9 121.9 277.1 142-62.8-85.1-163.4-140.6-277.1-142M468.6 295.4c82.6-19.3 184-61.9 277.1-142.1-113.7 1.3-214.3 56.9-277.1 142.1M744 852.2C566.8 728.7 459.2 510.3 464.1 301.6c-40.1 56.9-63.6 126.2-63.6 201.1C400.4 693.8 553.7 849 744 852.2M1036.1 302c5.1 209.9-98.6 425-280 550.2 190.2-3.3 343.4-158.5 343.4-349.5 0-74.7-23.5-143.9-63.4-200.7M750 144c197.6 0 357.9 160.2 357.9 357.9 0 197.6-160.2 357.8-357.9 357.8-197.6 0-357.9-160.2-357.9-357.8C392.1 304.2 552.3 144 750 144"/><path d="M648.5 436.1v-95.5c0-18.7-21.5-23.7-39-22.6 17.2-27.4 42.7-36.6 67.2-15.8 16.4-23 56.6-54.8 94.3-53.6 169.2 2.6 176.5 245.4 56.8 288.9C712 579.6 694.1 430.9 766.5 436c47.2 4.1 32.3 82.9-10.1 58.1 16.5 48.3 122.5-1.1 68.5-96.2 35.8-36.5 4.7-109.4-48-110.1-44.7-.6-63.4 41.3-63.6 69.7v268.9c-.5 47.6 6.2 84.7 45.5 105.5-39.7 18.6-81-8.4-88.3-49.1-17.1 7.2-35 2.2-49.4-20.9 14.7-1.9 27.6-11.6 27.4-34.3V474l-19.7-18.6 19.7-19.3zm-25.8-124.4c13.4-.5 32.7 9.2 32.7 28.8v98.2l-17 16.7 17 15.7v158.6c0 11.1-2.5 28.5-22.2 36.1 14.3 17.3 27.8 14.2 43.4 5.6 3.3 47.8 41.4 63.6 66.6 58.2-33-24.2-36.5-62.6-36.8-95.9V356.8c0-27.3 18.8-75.6 70.7-75.5 57.9.1 90 76.1 56 116.6 59.2 109.5-82.1 164.5-86.4 81.9 46 39.4 56.8-34.2 18.7-37.3-62-5.1-43 130 62.7 87.6 109.5-44.8 104.5-270.9-57.1-275.2-37.2-1-71.2 28.5-93.5 57.3-17.2-17.1-35.1-21.4-54.8-.5m154.2 480.9h-53.7c13.5 11.1 23.2 17.9 27 20.2 3.4-2.3 13.1-9.1 26.7-20.2m26.6-23.1H696.9c8.3 7.8 16 14.5 22.9 20.2h60.7c6.8-5.7 14.6-12.4 23-20.2m23.3-22.7h-153c6.9 7.2 13.6 13.8 20 19.8h112.8c6.4-6 13.2-12.6 20.2-19.8m-.2-256.9h8.2c-.6 1-1.1 1.9-1.7 2.8h-8.8c.8-.9 1.5-1.9 2.3-2.8m-37.4 0h37.4c-.8 1-1.5 1.9-2.3 2.8h-37.6c.9-.9 1.7-1.8 2.5-2.8m-3 0h3c-.8 1-1.6 2-2.5 2.8h-5.4c1.9-.6 3.5-1.6 4.9-2.8m51.8-23.6h5c-.2 1-.4 1.9-.5 2.9h-5.3c.3-1 .6-1.9.8-2.9m-42.3 0H838c-.2.9-.5 1.9-.8 2.9h-41.5v-2.9m-3.8 0h3.8c.1.9.1 1.9.1 2.9h-3.4c-.2-1-.3-1.9-.5-2.9m-66.7 0h3.1c-.3.9-.5 1.9-.7 2.9h-3c.2-1 .4-1.9.6-2.9m-11.9 0h11.9c-.2.9-.4 1.9-.6 2.9h-11.2l-.1-2.9zm-4.6 0h4.7v2.9h-4.7v-2.9zm131.2-22.8h4c.1 1 .1 1.9.2 2.8H840c.1-.9 0-1.8-.1-2.8m-54.5 0H840c.1 1 .1 1.9.2 2.8h-52l-2.8-2.8m-10.9 0h10.8c1 .9 1.9 1.8 2.8 2.8h-8.8c-1.4-1-3-1.9-4.8-2.8m-35.4 0h10.3c-2.2.8-4.2 1.8-6 2.8H736c1-.9 2-1.9 3.1-2.8m-25.8 0h25.8c-1.1.9-2.2 1.8-3.2 2.8h-22.6v-2.8zm-4.6 0h4.6v2.8h-4.6v-2.8zm126.5-23.2h4.2c.3 1 .6 1.9.8 2.9h-4.1c-.3-.9-.6-1.9-.9-2.9m-121.9 0h121.8c.3 1 .6 1.9.9 2.9H713.3v-2.9zm-4.6 0h4.6v2.9h-4.6v-2.9zm116.8-23.1h5.8c-.3.3-.5.6-.8.9.3.7.6 1.3.9 2h-5.3c-.4-.8-.8-1.5-1.2-2.3l.6-.6m-112.2 0h112.1c-.2.2-.4.4-.5.6.4.8.8 1.5 1.2 2.3H713.3v-2.9zm-4.5 0h4.6v2.9h-4.6v-2.9zM838.4 374h4.6c-.2.9-.4 1.9-.7 2.8h-4.7c.2-.9.5-1.8.8-2.8m-125.1 0h125c-.2.9-.5 1.9-.8 2.8H713.3V374zm-4.5 0h4.5v2.8h-4.5V374zm131.1-23.1h4.1c.1.9.2 1.9.3 2.8h-4.1c-.1-.9-.2-1.8-.3-2.8m-126.2 0h126.2c.1.9.2 1.9.3 2.8H713.5c0-.9.1-1.8.2-2.8m-4.7 0h4.7c-.1 1-.2 1.9-.2 2.8h-4.6c0-.9 0-1.8.1-2.8m124.4-23.2h4.4c.4.9.8 1.9 1.2 2.9h-4.3c-.4-1-.8-2-1.3-2.9m-113.9 0h113.9c.4.9.8 1.9 1.2 2.9H718.4c.3-1 .7-1.9 1.1-2.9m-4.9 0h4.9c-.4 1-.8 1.9-1.1 2.9h-4.9c.3-1 .7-1.9 1.1-2.9M817 304.6h6.6c.8.9 1.6 1.9 2.3 2.8h-6.1c-.9-.9-1.8-1.9-2.8-2.8m-82.6 0H817c1 .9 1.9 1.9 2.8 2.8h-88.1c1-.9 1.8-1.9 2.7-2.8m-4.6 0h4.7c-.9.9-1.8 1.9-2.6 2.8h-4.6c.7-.9 1.6-1.9 2.5-2.8m24.9 231.6h17.9c5 1.5 10.3 2.5 15.9 2.8h-28.3c-1.8-.9-3.7-1.8-5.5-2.8m-41.4 0h41.4c1.8 1 3.7 2 5.6 2.8h-47v-2.8zm-4.8 0h4.8v2.8h-4.8v-2.8zM732 513h7c.7 1 1.5 1.9 2.3 2.9h-7.6c-.6-1-1.1-2-1.7-2.9m-18.7 0H732c.5 1 1.1 1.9 1.7 2.9h-20.4V513zm-4.7 0h4.8v2.9h-4.8V513zm15.6-23.1h3.9c.2.9.5 1.9.7 2.8h-4.2c-.1-.9-.3-1.9-.4-2.8m-10.9 0h10.9c.1.9.3 1.9.5 2.8h-11.4v-2.8zm-4.7 0h4.7v2.8h-4.7v-2.8zm121.1-228.7H825c-2.7-1-5.4-2-8.2-2.9h6.2c2.3.9 4.5 1.8 6.7 2.9m34.1 23.1h-1.4c-1-1-2.1-1.9-3.2-2.9h1.4c1.1.9 2.2 1.9 3.2 2.9m19.2 23.2h-.9c-.6-.9-1.2-1.9-1.9-2.8h.9c.6.9 1.3 1.8 1.9 2.8m12.3 23.1h-.9c-.4-1-.8-1.9-1.3-2.9h.9c.5 1 .9 1.9 1.3 2.9m8 23.2h-1.1c-.2-.9-.5-1.9-.8-2.8h1.1c.2.9.5 1.8.8 2.8m4.4 23.1h-1.4c-.1-.9-.2-1.9-.4-2.8h1.3c.2.9.3 1.8.5 2.8m1.4 23.2h-1.6v-2.9h1.6v2.9m-1.4 23.1h-1.8c.1-.9.3-1.9.4-2.9h1.8c-.2 1-.3 1.9-.4 2.9m-4.4 23.2h-2.1c.3-.9.5-1.9.8-2.8h2c-.3.9-.5 1.8-.7 2.8m-7.8 22.8h-2.3c.4-1 .8-1.9 1.2-2.9h2.3c-.4 1-.8 1.9-1.2 2.9M883 492.7h-2.8c.6-.9 1.3-1.9 1.9-2.8h2.8c-.7.9-1.3 1.9-1.9 2.8m-19.7 23.1h-4.2c1.1-.9 2.2-1.9 3.3-2.9h4c-1 1-2 2-3.1 2.9M823.1 539H800c5.6-.4 11.4-1.3 17.6-2.8H831c-1 .4-2.1.8-3.1 1.2-1.6.6-3.2 1.1-4.8 1.6m-109.8 23.1h-4.9v-2.9h4.8l.1 2.9zm0 23.2h-4.9v-2.9h4.9v2.9zm0 23.1h-4.9v-2.9h4.9v2.9zm0 22.7h-4.9v-2.9h4.9v2.9m.8 23.1h-5.7l-.1-.4v-2.4h5.6c.1.9.1 1.9.2 2.8m3.5 23.2h-5c-.3-.9-.5-1.9-.7-2.8h5.1c.2.9.4 1.8.6 2.8m8.6 23.1h-4.9c-.5-.9-.9-1.9-1.4-2.9h4.8c.5 1 1 2 1.5 2.9m19.9 23.2h-7.6c-1-.9-2-1.9-2.9-2.9h7.1c1 1 2.2 2 3.4 2.9m-55.1-2.8h6.2c1 1 2.1 1.9 3.2 2.9h-6.1c-1.2-1-2.3-2-3.3-2.9m-16-23.3h6.2c.4.9.9 1.9 1.3 2.9h-6.3c-.4-.9-.8-1.9-1.2-2.9m-43.9-23.1h6.3c1.5 1 2.9 1.9 4.5 2.8h-7.6c-1-.8-2.1-1.7-3.2-2.8m10.3-23.2h8.3c-.1.8-.3 1.5-.4 2.2-.2.2-.3.5-.5.7h-10.1c.9-.9 1.8-1.8 2.7-2.9m7.1-23.1h1.8v2.9h-1.8v-2.9m0-22.6h1.8v2.9h-1.8v-2.9zm0-23.1h1.8v2.9h-1.8v-2.9zm0-23.2h1.9v2.9h-1.9v-2.9zm0-23.1h1.9v2.8h-1.9v-2.8zm0-23.2h1.9v2.9h-1.9V513zm0-23.1h2v2.8h-2v-2.8zm-8.2-23.6h4.2l2.5 2.9h-3.7l-3-2.9zm8.2-46h1.9v2.9h-1.9v-2.9zm0-23.1h2v2.9h-2v-2.9zm0-23.2h2v2.8h-2V374zm0-23.1h2.1v2.8h-2.1v-2.8zm-4.7-23.2h6.1c.3.9.5 1.9.6 2.9h-4.6c-.6-1.1-1.3-2-2.1-2.9M620 304.6h4.7c-.9.9-1.7 1.9-2.6 2.8h-4.8c.9-.9 1.8-1.9 2.7-2.8m75.8-23.2h8.2c-1 .9-2.1 1.9-3.1 2.9h-8.3c1.1-1 2.1-2 3.2-2.9m34.4-23.1h7.8c-2 .9-4.1 1.8-6 2.9h-7.4c1.8-1 3.7-2 5.6-2.9m77.9-20.4H690.5c-10.2 6.6-21.6 13.4-34 20.4h73.7c-1.9.9-3.8 1.9-5.6 2.9h-73.3c-12.5 6.8-26 13.6-40.5 20.2h85c-1.1.9-2.1 1.9-3.1 2.9h-88.2c-16.3 7.2-33.7 14.1-52.1 20.3H620c-.9.9-1.8 1.9-2.7 2.8h-73.6c-14 4.5-28.5 8.6-43.6 12.2v8h143.6c.8.9 1.5 1.8 2.1 2.9H500.2c.1 6.8.3 13.6.6 20.3h147.7v2.8H501c.4 6.8.8 13.6 1.4 20.3h146.1v2.8H502.6c.6 6.9 1.4 13.7 2.2 20.3h143.7v2.9H505.2c.9 6.8 1.9 13.6 2.9 20.2h140.4v2.9H508.6c1.2 6.9 2.4 13.7 3.8 20.4h138.2l-2.9 2.8H513c1.4 6.7 2.9 13.4 4.5 19.9h122.9l3 2.9H518.2c1.7 7 3.6 13.9 5.6 20.7h124.8v2.8h-124c2 6.9 4.1 13.6 6.4 20.2h117.6v2.9H531.9c2.4 6.9 4.8 13.7 7.3 20.4h109.3v2.8H540.4c2.7 6.9 5.4 13.6 8.3 20.2h99.9v2.9h-98.7c3 6.9 6.1 13.7 9.3 20.3h89.4v2.9h-88c3.4 6.9 6.8 13.7 10.3 20.2h77.6v2.9h-76.1c3.7 6.7 7.4 13.3 11.2 19.8h64.9c0 1 0 1.9-.1 2.9h-63.1c4.1 6.9 8.3 13.7 12.6 20.2h43.5c-.8 1-1.8 2-2.7 2.9h-38.9c4.6 7 9.3 13.8 14 20.4h17.4c1 1 2.1 2 3.2 2.8h-18.6c5.1 7 10.2 13.8 15.2 20.2h43.9c.4 1 .8 1.9 1.3 2.9h-42.9c5.6 7.1 11.3 13.9 16.9 20.4H691c1 1 2.1 1.9 3.2 2.9h-41.6c6.3 7.2 12.4 13.9 18.5 20.2h158.5c6.1-6.3 12.3-13.1 18.6-20.2H746.1c-1.2-.9-2.4-1.9-3.5-2.9h108.1c5.6-6.4 11.3-13.2 17-20.4H726.2c-.5-.9-1-1.9-1.5-2.9h145.1c5.1-6.5 10.3-13.2 15.4-20.2H717.6c-.2-.9-.4-1.9-.6-2.8h170.3c4.7-6.6 9.4-13.3 14-20.4H714.1c-.1-.9-.2-1.9-.2-2.9h189.3c4.3-6.6 8.5-13.3 12.6-20.2H713.3V628h204.2c3.8-6.4 7.5-13 11.2-19.8H713.3v-2.9h216.9c3.5-6.6 7-13.3 10.3-20.2H713.3v-2.9h228.5c3.2-6.6 6.3-13.4 9.3-20.3H713.3V559h239c2.8-6.6 5.6-13.4 8.2-20.2H823.1c1.6-.5 3.2-1 4.8-1.6 1-.4 2.1-.8 3.1-1.2h130.7c2.5-6.7 4.9-13.4 7.2-20.4H863.3c1-.9 2.1-1.9 3-2.9h103.5c2.2-6.6 4.3-13.4 6.3-20.2h-93.2c.6-.9 1.3-1.9 1.9-2.8H977c1.9-6.8 3.8-13.7 5.5-20.7h-86.9c.4-.9.8-1.9 1.2-2.9h86.5a412 412 0 0 0 4.4-19.9h-84.4c.2-.9.5-1.9.7-2.8h84.2c1.3-6.7 2.6-13.5 3.7-20.4h-84.2c.1-.9.2-1.9.3-2.9h84.4c1.1-6.7 2-13.4 2.9-20.2h-86.2V397h86.5c.8-6.7 1.5-13.5 2.1-20.3h-90c-.1-.9-.3-1.9-.4-2.8h90.6c.5-6.7 1-13.4 1.3-20.3h-96c-.3-.9-.5-1.9-.8-2.8h96.9c.3-6.7.5-13.5.6-20.3H895.3c-.4-1-.8-1.9-1.3-2.9h106v-8c-15.5-3.6-30.3-7.8-44.5-12.2H883c-.6-.9-1.3-1.9-1.9-2.8h65.6c-18.8-6.3-36.5-13.2-52.8-20.3h-30.1c-1-1-2.1-1.9-3.1-2.9h26.8c-14.6-6.6-28.1-13.4-40.5-20.2h-17.2c-2.2-1-4.4-2-6.7-2.9h18.7c-12.4-6.9-23.6-13.8-33.7-20.4m-32.5-23.1h-51.9c-8 6.1-17.7 12.9-28.9 20.3h108.9c-10.8-7.3-20.3-14.2-28.1-20.3m-48.1-2.8H772c-11.3-9-18.8-15.9-22-19.2-3.1 3.3-10.8 10.2-22.5 19.2m279.3 102.6c6.2 193.2-93 394.4-256.8 507.8-159.9-111.6-262.7-315.8-256.6-507.7 74.3-17.3 172.5-55.4 256.6-131.3 80.9 76.1 180.1 113.2 256.8 131.2" style="fill:#006437"/></svg>